<svg width="28" height="28" viewBox="0 0 28 28" fill="none" xmlns="http://www.w3.org/2000/svg">
<rect width="28" height="28" rx="9" fill="#292D45"/>
<path d="M6.16602 19V9.19727H10.083C11.0264 9.19727 11.7874 9.47298 12.3662 10.0244C12.945 10.5758 13.2344 11.305 13.2344 12.2119C13.2344 12.6859 13.1546 13.1165 12.9951 13.5039C12.8356 13.8913 12.6283 14.2012 12.373 14.4336C12.1178 14.6615 11.8558 14.8415 11.5869 14.9736C11.3226 15.1012 11.056 15.1833 10.7871 15.2197L13.4463 19H11.7646L9.10547 15.2197H7.63574V19H6.16602ZM7.63574 13.8867H9.94629C10.5068 13.8867 10.9489 13.7386 11.2725 13.4424C11.6006 13.1416 11.7646 12.7314 11.7646 12.2119C11.7646 11.6878 11.6006 11.2777 11.2725 10.9814C10.9489 10.6807 10.5068 10.5303 9.94629 10.5303H7.63574V13.8867ZM15.1211 19V9.19727H19.0381C19.9814 9.19727 20.7425 9.47298 21.3213 10.0244C21.9001 10.5758 22.1895 11.305 22.1895 12.2119C22.1895 12.6859 22.1097 13.1165 21.9502 13.5039C21.7907 13.8913 21.5833 14.2012 21.3281 14.4336C21.0729 14.6615 20.8109 14.8415 20.542 14.9736C20.2777 15.1012 20.0111 15.1833 19.7422 15.2197L22.4014 19H20.7197L18.0605 15.2197H16.5908V19H15.1211ZM16.5908 13.8867H18.9014C19.4619 13.8867 19.904 13.7386 20.2275 13.4424C20.5557 13.1416 20.7197 12.7314 20.7197 12.2119C20.7197 11.6878 20.5557 11.2777 20.2275 10.9814C19.904 10.6807 19.4619 10.5303 18.9014 10.5303H16.5908V13.8867Z" fill="white"/>
</svg>
